<?xml version="1.0" encoding="UTF-8" standalone="no"?>
<!DOCTYPE svg PUBLIC "-//W3C//DTD SVG 1.1//EN"
 "http://www.w3.org/Graphics/SVG/1.1/DTD/svg11.dtd">
<!-- Generated by graphviz version 2.43.0 (0)
 -->
<!-- Title: Z Pages: 1 -->
<svg width="216pt" height="587pt"
 viewBox="0.00 0.00 216.00 587.00" xmlns="http://www.w3.org/2000/svg" xmlns:xlink="http://www.w3.org/1999/xlink">
<g id="graph0" class="graph" transform="scale(1 1) rotate(0) translate(4 583)">
<title>Z</title>
<polygon fill="white" stroke="transparent" points="-4,4 -4,-583 212,-583 212,4 -4,4"/>
<!-- B -->
<g id="node1" class="node">
<title>B</title>
<ellipse fill="none" stroke="black" cx="114" cy="-474" rx="27" ry="18"/>
<text text-anchor="middle" x="114" y="-470.3" font-family="Times,serif" font-size="14.00">B</text>
</g>
<!-- C -->
<g id="node2" class="node">
<title>C</title>
<ellipse fill="none" stroke="black" cx="51" cy="-387" rx="27" ry="18"/>
<text text-anchor="middle" x="51" y="-383.3" font-family="Times,serif" font-size="14.00">C</text>
</g>
<!-- B&#45;&#45;C -->
<g id="edge1" class="edge">
<title>B&#45;&#45;C</title>
<path fill="none" stroke="black" d="M102.44,-457.41C91.08,-442.07 73.82,-418.79 62.48,-403.49"/>
<text text-anchor="middle" x="91" y="-426.8" font-family="Times,serif" font-size="14.00">2</text>
</g>
<!-- D -->
<g id="node4" class="node">
<title>D</title>
<ellipse fill="none" stroke="black" cx="27" cy="-279" rx="27" ry="18"/>
<text text-anchor="middle" x="27" y="-275.3" font-family="Times,serif" font-size="14.00">D</text>
</g>
<!-- B&#45;&#45;D -->
<g id="edge4" class="edge">
<title>B&#45;&#45;D</title>
<path fill="none" stroke="black" d="M110.97,-456.01C106.91,-435.07 98.85,-398.62 87,-369 76.8,-343.51 72.68,-337.54 57,-315 52.16,-308.04 46.18,-300.84 40.84,-294.79"/>
<text text-anchor="middle" x="103" y="-383.3" font-family="Times,serif" font-size="14.00">9</text>
</g>
<!-- G -->
<g id="node5" class="node">
<title>G</title>
<ellipse fill="none" stroke="black" cx="135" cy="-18" rx="27" ry="18"/>
<text text-anchor="middle" x="135" y="-14.3" font-family="Times,serif" font-size="14.00">G</text>
</g>
<!-- B&#45;&#45;G -->
<g id="edge5" class="edge">
<title>B&#45;&#45;G</title>
<path fill="none" stroke="black" d="M135.63,-462.84C160.52,-449.48 198,-423.48 198,-388 198,-388 198,-388 198,-104 198,-73.51 171.51,-46.82 152.88,-31.82"/>
<text text-anchor="middle" x="203" y="-231.8" font-family="Times,serif" font-size="14.00">4</text>
</g>
<!-- H -->
<g id="node6" class="node">
<title>H</title>
<ellipse fill="none" stroke="black" cx="156" cy="-333" rx="27" ry="18"/>
<text text-anchor="middle" x="156" y="-329.3" font-family="Times,serif" font-size="14.00">H</text>
</g>
<!-- B&#45;&#45;H -->
<g id="edge6" class="edge">
<title>B&#45;&#45;H</title>
<path fill="none" stroke="black" d="M121.1,-456.41C123.44,-450.64 125.97,-444.08 128,-438 138.05,-407.84 147.1,-371.88 152.05,-351.12"/>
<text text-anchor="middle" x="137" y="-426.8" font-family="Times,serif" font-size="14.00">2</text>
</g>
<!-- C&#45;&#45;D -->
<g id="edge8" class="edge">
<title>C&#45;&#45;D</title>
<path fill="none" stroke="black" d="M47.14,-368.97C42.67,-349.19 35.32,-316.75 30.85,-296.99"/>
<text text-anchor="middle" x="48" y="-329.3" font-family="Times,serif" font-size="14.00">1</text>
</g>
<!-- E -->
<g id="node8" class="node">
<title>E</title>
<ellipse fill="none" stroke="black" cx="88" cy="-192" rx="27" ry="18"/>
<text text-anchor="middle" x="88" y="-188.3" font-family="Times,serif" font-size="14.00">E</text>
</g>
<!-- C&#45;&#45;E -->
<g id="edge13" class="edge">
<title>C&#45;&#45;E</title>
<path fill="none" stroke="black" d="M54.28,-368.87C61.3,-332.25 77.71,-246.68 84.72,-210.09"/>
<text text-anchor="middle" x="79" y="-275.3" font-family="Times,serif" font-size="14.00">3</text>
</g>
<!-- A -->
<g id="node3" class="node">
<title>A</title>
<ellipse fill="none" stroke="black" cx="75" cy="-561" rx="27" ry="18"/>
<text text-anchor="middle" x="75" y="-557.3" font-family="Times,serif" font-size="14.00">A</text>
</g>
<!-- A&#45;&#45;B -->
<g id="edge3" class="edge">
<title>A&#45;&#45;B</title>
<path fill="none" stroke="black" d="M82.52,-543.61C89.43,-528.56 99.6,-506.37 106.5,-491.34"/>
<text text-anchor="middle" x="101" y="-513.8" font-family="Times,serif" font-size="14.00">1</text>
</g>
<!-- A&#45;&#45;C -->
<g id="edge2" class="edge">
<title>A&#45;&#45;C</title>
<path fill="none" stroke="black" d="M72.61,-542.88C68.01,-509.91 57.97,-437.97 53.38,-405.05"/>
<text text-anchor="middle" x="70" y="-470.3" font-family="Times,serif" font-size="14.00">4</text>
</g>
<!-- D&#45;&#45;G -->
<g id="edge9" class="edge">
<title>D&#45;&#45;G</title>
<path fill="none" stroke="black" d="M24.66,-260.8C20.75,-225.23 16.46,-142.27 52,-87 67.92,-62.24 95.8,-42.14 114.82,-30.38"/>
<text text-anchor="middle" x="35" y="-144.8" font-family="Times,serif" font-size="14.00">1</text>
</g>
<!-- F -->
<g id="node7" class="node">
<title>F</title>
<ellipse fill="none" stroke="black" cx="88" cy="-105" rx="27" ry="18"/>
<text text-anchor="middle" x="88" y="-101.3" font-family="Times,serif" font-size="14.00">F</text>
</g>
<!-- D&#45;&#45;F -->
<g id="edge11" class="edge">
<title>D&#45;&#45;F</title>
<path fill="none" stroke="black" d="M27.14,-260.84C27.84,-239.72 30.75,-203.09 42,-174 49.76,-153.93 64.37,-133.88 75.05,-120.8"/>
<text text-anchor="middle" x="47" y="-188.3" font-family="Times,serif" font-size="14.00">3</text>
</g>
<!-- D&#45;&#45;E -->
<g id="edge12" class="edge">
<title>D&#45;&#45;E</title>
<path fill="none" stroke="black" d="M38.19,-262.41C49.19,-247.07 65.9,-223.79 76.88,-208.49"/>
<text text-anchor="middle" x="67" y="-231.8" font-family="Times,serif" font-size="14.00">1</text>
</g>
<!-- H&#45;&#45;G -->
<g id="edge7" class="edge">
<title>H&#45;&#45;G</title>
<path fill="none" stroke="black" d="M154.55,-314.76C153.08,-295.65 151,-263.89 151,-236.5 151,-236.5 151,-236.5 151,-104 151,-79.97 144.75,-52.78 140.06,-35.76"/>
<text text-anchor="middle" x="160.5" y="-188.3" font-family="Times,serif" font-size="14.00">14</text>
</g>
<!-- F&#45;&#45;G -->
<g id="edge10" class="edge">
<title>F&#45;&#45;G</title>
<path fill="none" stroke="black" d="M97.06,-87.61C105.44,-72.46 117.81,-50.09 126.13,-35.05"/>
<text text-anchor="middle" x="119" y="-57.8" font-family="Times,serif" font-size="14.00">6</text>
</g>
<!-- E&#45;&#45;F -->
<g id="edge14" class="edge">
<title>E&#45;&#45;F</title>
<path fill="none" stroke="black" d="M88,-173.8C88,-159.05 88,-137.92 88,-123.18"/>
<text text-anchor="middle" x="93" y="-144.8" font-family="Times,serif" font-size="14.00">1</text>
</g>
</g>
</svg>
