<?xml version="1.0" encoding="UTF-8" standalone="no"?>
<!DOCTYPE svg PUBLIC "-//W3C//DTD SVG 1.1//EN"
 "http://www.w3.org/Graphics/SVG/1.1/DTD/svg11.dtd">
<!-- Generated by graphviz version 2.43.0 (0)
 -->
<!-- Title: %3 Pages: 1 -->
<svg width="756pt" height="628pt"
 viewBox="0.00 0.00 756.00 628.00" xmlns="http://www.w3.org/2000/svg" xmlns:xlink="http://www.w3.org/1999/xlink">
<g id="graph0" class="graph" transform="scale(1 1) rotate(0) translate(4 624)">
<title>%3</title>
<polygon fill="white" stroke="transparent" points="-4,4 -4,-624 752,-624 752,4 -4,4"/>
<!-- F -->
<g id="node1" class="node">
<title>F</title>
<image xlink:href="image.png" width="72px" height="72px" preserveAspectRatio="xMinYMin meet" x="28" y="-180"/>
<text text-anchor="middle" x="14" y="-192" font-family="Times,serif" font-size="40.00" fill="red">F</text>
</g>
<!-- G -->
<g id="node5" class="node">
<title>G</title>
<image xlink:href="image.png" width="72px" height="72px" preserveAspectRatio="xMinYMin meet" x="64" y="-432"/>
<text text-anchor="middle" x="47.5" y="-444" font-family="Times,serif" font-size="40.00" fill="red">G</text>
</g>
<!-- F&#45;&#45;G -->
<g id="edge13" class="edge">
<title>F&#45;&#45;G</title>
<path fill="none" stroke="red" d="M69.16,-180.11C76,-228.01 88.01,-312.09 94.85,-359.96"/>
<text text-anchor="middle" x="69" y="-282.03" font-family="Times,serif" font-size="40.00" fill="blue">6</text>
</g>
<!-- E -->
<g id="node2" class="node">
<title>E</title>
<image xlink:href="image.png" width="72px" height="72px" preserveAspectRatio="xMinYMin meet" x="280" y="-72"/>
<text text-anchor="middle" x="265" y="-84" font-family="Times,serif" font-size="40.00" fill="red">E</text>
</g>
<!-- E&#45;&#45;F -->
<g id="edge12" class="edge">
<title>E&#45;&#45;F</title>
<path fill="none" stroke="red" d="M279.89,-51.47C231.99,-72 147.91,-108.04 100.04,-128.55"/>
<text text-anchor="middle" x="176.97" y="-102.01" font-family="Times,serif" font-size="40.00" fill="blue">1</text>
</g>
<!-- D -->
<g id="node3" class="node">
<title>D</title>
<image xlink:href="image.png" width="72px" height="72px" preserveAspectRatio="xMinYMin meet" x="172" y="-288"/>
<text text-anchor="middle" x="155.5" y="-228" font-family="Times,serif" font-size="40.00" fill="red">D</text>
</g>
<!-- D&#45;&#45;F -->
<g id="edge11" class="edge">
<title>D&#45;&#45;F</title>
<path fill="none" stroke="red" d="M171.66,-224.75C149.75,-208.31 121.94,-187.46 100.08,-171.06"/>
<text text-anchor="middle" x="122.87" y="-209.9" font-family="Times,serif" font-size="40.00" fill="blue">3</text>
</g>
<!-- D&#45;&#45;E -->
<g id="edge9" class="edge">
<title>D&#45;&#45;E</title>
<path fill="none" stroke="red" d="M226.08,-215.85C246.01,-175.97 277.9,-112.19 297.86,-72.27"/>
<text text-anchor="middle" x="248.97" y="-156.06" font-family="Times,serif" font-size="40.00" fill="blue">1</text>
</g>
<!-- D&#45;&#45;G -->
<g id="edge10" class="edge">
<title>D&#45;&#45;G</title>
<path fill="none" stroke="red" d="M180.75,-288.34C164.31,-310.25 143.46,-338.06 127.06,-359.92"/>
<text text-anchor="middle" x="140.9" y="-292.13" font-family="Times,serif" font-size="40.00" fill="blue">1</text>
</g>
<!-- C -->
<g id="node4" class="node">
<title>C</title>
<image xlink:href="image.png" width="72px" height="72px" preserveAspectRatio="xMinYMin meet" x="460" y="-288"/>
<text text-anchor="middle" x="444.5" y="-300" font-family="Times,serif" font-size="40.00" fill="red">C</text>
</g>
<!-- C&#45;&#45;E -->
<g id="edge8" class="edge">
<title>C&#45;&#45;E</title>
<path fill="none" stroke="red" d="M465.87,-215.85C432.65,-175.97 379.49,-112.19 346.23,-72.27"/>
<text text-anchor="middle" x="393.05" y="-156.06" font-family="Times,serif" font-size="40.00" fill="blue">3</text>
</g>
<!-- C&#45;&#45;D -->
<g id="edge7" class="edge">
<title>C&#45;&#45;D</title>
<path fill="none" stroke="red" d="M459.82,-252C404.52,-252 299.6,-252 244.26,-252"/>
<text text-anchor="middle" x="339.04" y="-264" font-family="Times,serif" font-size="40.00" fill="blue">1</text>
</g>
<!-- H -->
<g id="node6" class="node">
<title>H</title>
<image xlink:href="image.png" width="72px" height="72px" preserveAspectRatio="xMinYMin meet" x="244" y="-576"/>
<text text-anchor="middle" x="226" y="-588" font-family="Times,serif" font-size="40.00" fill="red">H</text>
</g>
<!-- G&#45;&#45;H -->
<g id="edge14" class="edge">
<title>G&#45;&#45;H</title>
<path fill="none" stroke="red" d="M136.43,-425.14C167.76,-450.21 212.71,-486.17 243.94,-511.15"/>
<text text-anchor="middle" x="164.18" y="-480.14" font-family="Times,serif" font-size="40.00" fill="blue">14</text>
</g>
<!-- B -->
<g id="node7" class="node">
<title>B</title>
<image xlink:href="image.png" width="72px" height="72px" preserveAspectRatio="xMinYMin meet" x="460" y="-576"/>
<text text-anchor="middle" x="445" y="-588" font-family="Times,serif" font-size="40.00" fill="red">B</text>
</g>
<!-- B&#45;&#45;D -->
<g id="edge4" class="edge">
<title>B&#45;&#45;D</title>
<path fill="none" stroke="red" d="M459.82,-503.82C404.52,-448.52 299.6,-343.6 244.26,-288.26"/>
<text text-anchor="middle" x="339.04" y="-408.04" font-family="Times,serif" font-size="40.00" fill="blue">9</text>
</g>
<!-- B&#45;&#45;C -->
<g id="edge3" class="edge">
<title>B&#45;&#45;C</title>
<path fill="none" stroke="red" d="M496,-503.82C496,-448.52 496,-343.6 496,-288.26"/>
<text text-anchor="middle" x="483" y="-408.04" font-family="Times,serif" font-size="40.00" fill="blue">2</text>
</g>
<!-- B&#45;&#45;G -->
<g id="edge5" class="edge">
<title>B&#45;&#45;G</title>
<path fill="none" stroke="red" d="M459.81,-526.84C384.49,-499.45 211.62,-436.59 136.25,-409.18"/>
<text text-anchor="middle" x="285.03" y="-436.01" font-family="Times,serif" font-size="40.00" fill="blue">4</text>
</g>
<!-- B&#45;&#45;H -->
<g id="edge6" class="edge">
<title>B&#45;&#45;H</title>
<path fill="none" stroke="red" d="M459.85,-540C419.97,-540 356.19,-540 316.27,-540"/>
<text text-anchor="middle" x="375.06" y="-552" font-family="Times,serif" font-size="40.00" fill="blue">2</text>
</g>
<!-- A -->
<g id="node8" class="node">
<title>A</title>
<image xlink:href="image.png" width="72px" height="72px" preserveAspectRatio="xMinYMin meet" x="676" y="-396"/>
<text text-anchor="middle" x="661" y="-408" font-family="Times,serif" font-size="40.00" fill="red">A</text>
</g>
<!-- A&#45;&#45;C -->
<g id="edge1" class="edge">
<title>A&#45;&#45;C</title>
<path fill="none" stroke="red" d="M675.85,-341.92C635.97,-321.99 572.19,-290.1 532.27,-270.14"/>
<text text-anchor="middle" x="591.06" y="-318.03" font-family="Times,serif" font-size="40.00" fill="blue">4</text>
</g>
<!-- A&#45;&#45;B -->
<g id="edge2" class="edge">
<title>A&#45;&#45;B</title>
<path fill="none" stroke="red" d="M675.85,-390.13C635.97,-423.35 572.19,-476.51 532.27,-509.77"/>
<text text-anchor="middle" x="591.06" y="-461.95" font-family="Times,serif" font-size="40.00" fill="blue">1</text>
</g>
</g>
</svg>
